<svg width="20" height="20" fill="none" xmlns="http://www.w3.org/2000/svg"><g fill="#fff"><path fill-rule="evenodd" clip-rule="evenodd" d="M1.004 7.934c0 3.823 3.112 6.934 6.935 6.934 3.822 0 6.934-3.111 6.934-6.934C14.873 4.112 11.761 1 7.94 1 4.116 1 1.004 4.112 1.004 7.934Zm1.015 0c0-3.26 2.652-5.92 5.92-5.92a5.926 5.926 0 0 1 5.92 5.92c0 3.261-2.652 5.92-5.92 5.92a5.926 5.926 0 0 1-5.92-5.92Zm16 10.897c.116.115.263.169.409.169a.571.571 0 0 0 .408-.17.581.581 0 0 0 0-.816l-3.852-3.853a.582.582 0 0 0-.817 0 .581.581 0 0 0 0 .817l3.853 3.853Z"/><path d="m18.02 18.83-.319.319.319-.319Zm.816 0 .319.319-.319-.319Zm0-.816.319-.318-.319.318Zm-3.852-3.853-.319.319.319-.319Zm-.817 0 .318.319-.318-.319Zm0 .817.318-.318-.318.318Zm-6.228-.56a6.494 6.494 0 0 1-6.485-6.484h-.9c0 4.071 3.314 7.385 7.385 7.385v-.9Zm6.485-6.484a6.494 6.494 0 0 1-6.485 6.484v.9c4.07 0 7.384-3.313 7.384-7.384h-.9ZM7.939 1.45a6.494 6.494 0 0 1 6.485 6.484h.9c0-4.07-3.314-7.384-7.385-7.384v.9ZM1.454 7.934A6.494 6.494 0 0 1 7.939 1.45v-.9C3.868.55.554 3.863.554 7.934h.9Zm6.485-6.37a6.376 6.376 0 0 0-6.37 6.37h.9a5.476 5.476 0 0 1 5.47-5.47v-.9Zm6.37 6.37a6.376 6.376 0 0 0-6.37-6.37v.9a5.476 5.476 0 0 1 5.47 5.47h.9Zm-6.37 6.37c3.516 0 6.37-2.86 6.37-6.37h-.9c0 3.013-2.451 5.47-5.47 5.47v.9Zm-6.37-6.37a6.376 6.376 0 0 0 6.37 6.37v-.9a5.476 5.476 0 0 1-5.47-5.47h-.9ZM18.428 18.55a.129.129 0 0 1-.048-.009.128.128 0 0 1-.042-.029l-.637.637c.205.204.468.301.727.301v-.9Zm.09-.038a.128.128 0 0 1-.042.03.129.129 0 0 1-.048.008v.9c.26 0 .522-.097.726-.301l-.636-.637Zm0-.18a.131.131 0 0 1 0 .18l.636.637c.4-.4.4-1.054 0-1.453l-.636.636Zm-3.853-3.852 3.853 3.852.636-.636-3.852-3.853-.636.637Zm-.18 0a.132.132 0 0 1 .18 0l.637-.637c-.4-.399-1.054-.399-1.453 0l.636.637Zm0 .18a.131.131 0 0 1 0-.18l-.636-.637c-.4.4-.4 1.054 0 1.453l.636-.636Zm3.853 3.852-3.853-3.852-.636.636L17.7 19.15l.637-.637Z"/></g></svg>