<svg width="20" height="20" viewBox="0 0 20 20" fill="none" xmlns="http://www.w3.org/2000/svg">
<g opacity="0.4">
<path fill-rule="evenodd" clip-rule="evenodd" d="M7.60677 6.18071C7.60677 4.83154 8.68624 3.75 10.0029 3.75C11.3196 3.75 12.399 4.83154 12.399 6.18071C12.399 7.52987 11.3196 8.61141 10.0029 8.61141C8.68624 8.61141 7.60677 7.52987 7.60677 6.18071ZM10.0029 2.5C7.98252 2.5 6.35677 4.15463 6.35677 6.18071C6.35677 8.20678 7.98252 9.86141 10.0029 9.86141C12.0233 9.86141 13.649 8.20678 13.649 6.18071C13.649 4.15463 12.0233 2.5 10.0029 2.5ZM6.98207 11.6667C6.01275 11.6667 5.08458 12.0562 4.40136 12.7472C3.71838 13.438 3.33594 14.3735 3.33594 15.3474V16.8752C3.33594 17.2204 3.61576 17.5002 3.96094 17.5002C4.30612 17.5002 4.58594 17.2204 4.58594 16.8752V15.3474C4.58594 14.7004 4.84009 14.0814 5.29026 13.6261C5.74018 13.171 6.34889 12.9167 6.98207 12.9167H13.0243C13.6575 12.9167 14.2662 13.171 14.7162 13.6261C15.1663 14.0814 15.4205 14.7004 15.4205 15.3474V16.8752C15.4205 17.2204 15.7003 17.5002 16.0455 17.5002C16.3907 17.5002 16.6705 17.2204 16.6705 16.8752V15.3474C16.6705 14.3735 16.288 13.438 15.6051 12.7472C14.9218 12.0562 13.9937 11.6667 13.0243 11.6667H6.98207Z" fill="white"/>
</g>
</svg>
